<svg width="272" height="141" viewBox="0 0 272 141" xmlns="http://www.w3.org/2000/svg"><title>lotus-white</title><g fill="#FFF" fill-rule="evenodd"><path d="M112.248 25.825c3.408-11.775 12.288-21.23 23.688-25.412 11.4 4.183 20.28 13.637 23.688 25.412a38.52 38.52 0 0 1 10.958-8.53 38.037 38.037 0 0 1 9.552-3.45c4.748 6.401 7.402 14.113 7.402 22.695 0 6.669-1.67 12.937-4.613 18.399l.01.007.081.044.13.068.082.044.13.07.076.043.13.073.076.042.135.074.072.042.134.077.072.04.14.08.062.038.144.085.062.035.154.09.048.03.168.1.033.022.188.115.014.008c.34.21.672.424 1.008.643l.005.005.192.126.024.016.168.116.033.023.164.11.038.028.158.106.044.031.196.138.144.104.048.035.144.103.053.036.14.103.047.037.14.103.052.038.14.104.052.038.135.105.053.038.139.106.048.038.139.108.043.037.144.11.043.036.14.113.043.034.144.116.043.032.144.12.034.029.153.125.029.025.158.131.024.02.164.139.014.013.173.149.005.005c.96.832 1.881 1.711 2.755 2.634l.105.11a38.577 38.577 0 0 1 6.533 9.434 38.583 38.583 0 0 1-9.393 12.18l-.005.004-.173.149-.014.013-.164.139-.024.02-.158.131-.029.025-.153.125-.034.029-.144.12-.043.032-.144.116-.043.034-.14.113-.043.035-.144.11-.043.038-.14.108-.047.038-.14.106-.052.038-.135.105-.052.038-.14.104-.052.038-.14.103-.048.037-.139.103-.053.036-.144.103-.048.035-.144.104-.048.033-.148.105-.044.03-.158.107-.038.028-.164.11-.033.023-.168.116-.024.016-.192.127-.005.004c-.336.22-.667.433-1.008.643l-.014.008-.188.115-.033.022-.168.1-.048.03-.154.09-.062.035-.144.085-.063.038-.139.08-.072.04-.134.077-.072.042-.135.074-.076.042-.13.073-.077.043-.13.07-.081.044-.13.068-.081.044-.125.067-.082.044-.13.066-.08.044-.13.064-.087.044-.125.064-.086.043-.125.063-.086.043-.13.062-.086.042-.125.061-.086.042-.13.06-.086.042-.13.06-.086.04-.13.06-.086.039-.135.06-.081.038-.135.06-.086.036-.14.061-.076.034-.144.063-.077.031-.154.066-.062.026-.187.077-.034.014-.225.09-.221.09-.034.012-.187.075-.067.025-.159.06-.076.03-.144.055-.092.032-.134.05-.091.034-.135.048-.096.034-.13.046-.095.035-.13.044-.1.034-.125.043-.101.034-.125.042-.106.034-.124.041-.106.033-.12.04-.106.033-.124.04-.106.032-.125.038-.105.032-.125.037-.106.032-.125.036-.11.03-.125.036-.105.03-.125.035-.106.03-.13.033-.105.03-.125.032-.11.029-.125.032-.11.027-.125.033-.11.026-.125.031-.106.026-.134.031-.106.024-.13.03-.105.025-.135.03-.1.022-.144.031-.096.02-.15.032-.086.018-.187.037-.053.011-.24.047-.052.01-.188.036-.086.015-.154.028-.096.017-.144.025-.105.018-.135.023-.11.017-.134.022-.11.017-.13.021-.11.017-.135.019-.11.016-.13.019-.115.015-.13.018-.115.015-.13.017-.115.014-.13.016-.115.013-.13.015-.115.013-.13.014-.12.013-.129.013-.115.011-.13.013-.115.01-.13.012-.12.01-.129.01-.115.01-.135.01-.115.009-.134.009-.115.008-.13.008-.12.007-.13.007-.12.006-.134.007-.115.005-.135.006-.115.005-.134.005-.115.004-.14.004-.11.003-.144.004-.11.002-.15.003-.1.001-.168.002h-.086l-.25.001h-.254l-.082-.001-.168-.002-.1-.001-.154-.003-.106-.002-.144-.004-.11-.003-.14-.004-.115-.004-.139-.005-.11-.005-.14-.006-.115-.005-.134-.007-.115-.006-.135-.007-.115-.007-.134-.008-.116-.008-.13-.01-.12-.008-.129-.01-.115-.01-.134-.01-.116-.01-.13-.011-.12-.011-.129-.013-.115-.011-.13-.013-.115-.013-.13-.014-.115-.013-.13-.015-.114-.013-.13-.016-.115-.014-.13-.017-.115-.015-.13-.018-.115-.015-.13-.019-.115-.016-.13-.02-.11-.016-.134-.02-.11-.018-.135-.022-.105-.017-.14-.023-.1-.018-.144-.025-.096-.017-.159-.028-.081-.015-.192-.036-.048-.01-.24-.047-.058-.01-.182-.038-.087-.018-.153-.032-.096-.02-.14-.03-.1-.023-.135-.03-.105-.024-.135-.03-.105-.025-.13-.031-.106-.026-.13-.031-.105-.026-.13-.033-.105-.027-.13-.032-.105-.029-.125-.033-.11-.029-.125-.034-.106-.03-.125-.034-.11-.03-.125-.036-.105-.03-.125-.036-.106-.032-.125-.037-.105-.032-.125-.038-.106-.033-.124-.039-.106-.033-.125-.04-.1-.033-.13-.04-.101-.035-.125-.042-.1-.034-.13-.043-.101-.034-.125-.044-.1-.035-.13-.046-.096-.034-.13-.048-.091-.034-.14-.05-.086-.032-.144-.055-.081-.03-.154-.06-.067-.025-.192-.075-.029-.012-.225-.09-.221-.09-.039-.014-.182-.077-.062-.026-.159-.066-.072-.031-.144-.063-.081-.034-.14-.061-.081-.036-.135-.06-.086-.038-.13-.06-.086-.04-.13-.059-.086-.04-.13-.06-.09-.042-.126-.06-.086-.042-.13-.061-.086-.042-.125-.062-.086-.043-.13-.063-.086-.043-.125-.064-.086-.044-.125-.064-.087-.044-.124-.066-.082-.044-.13-.067-.081-.044-.125-.068-.082-.044-.13-.07-.08-.043-.13-.073-.077-.042-.13-.074-.072-.042-.139-.077-.067-.04-.14-.08-.067-.038-.144-.085-.057-.035-.154-.09-.048-.03-.168-.1-.033-.022-.188-.115-.014-.008a33.84 33.84 0 0 1-1.008-.643l-.005-.004-.192-.127-.024-.016-.173-.116-.033-.023-.159-.11-.043-.028-.153-.106-.044-.031-.148-.105-.048-.033-.144-.104-.053-.035-.14-.103-.052-.036-.14-.103-.052-.037-.14-.103-.052-.038-.135-.104-.052-.038-.14-.105-.048-.038-.139-.106-.048-.038-.139-.108-.048-.037-.14-.11-.042-.036-.144-.113-.044-.034-.144-.116-.038-.032-.149-.12-.033-.029-.15-.125-.028-.025-.158-.131-.024-.02-.164-.139-.014-.013-.173-.149-.005-.005a38.822 38.822 0 0 1-2.76-2.633c-.403-.43-.801-.87-1.19-1.32a38.86 38.86 0 0 1-3.95 3.953l-.005.005-.173.149-.014.013-.164.139-.024.02-.158.131-.029.025-.153.125-.034.029-.144.12-.043.032-.144.116-.043.034-.14.113-.043.035-.144.11-.043.038-.14.108-.047.038-.14.106-.052.038-.135.105-.052.038-.14.104-.052.038-.14.103-.048.037-.139.103-.053.036-.144.103-.048.035-.144.104-.048.033-.148.105-.044.03-.158.107-.038.028-.164.11-.033.023-.168.116-.024.016-.192.127-.005.004c-.336.22-.667.433-1.008.643l-.014.008-.188.115-.038.022-.163.1-.048.03-.154.09-.062.035-.144.085-.063.038-.139.08-.072.04-.134.077-.072.042-.135.074-.076.042-.13.073-.077.043-.13.07-.081.044-.13.068-.081.044-.125.067-.082.044-.13.066-.08.044-.13.064-.087.044-.125.064-.086.043-.125.063-.086.043-.13.062-.086.042-.125.061-.086.042-.13.06-.086.042-.13.06-.086.04-.13.06-.086.039-.135.06-.081.038-.135.06-.086.036-.14.061-.076.034-.144.063-.077.031-.154.066-.062.026-.187.077-.034.014-.225.09-.221.09-.034.012-.187.075-.067.025-.159.06-.076.03-.144.055-.092.032-.134.05-.091.034-.135.048-.096.034-.13.046-.095.035-.13.044-.1.034-.125.043-.101.034-.125.042-.106.034-.124.041-.106.033-.12.04-.106.033-.124.04-.106.032-.125.038-.105.032-.125.037-.106.032-.125.036-.11.03-.125.036-.105.03-.125.035-.106.03-.13.033-.105.03-.125.032-.11.029-.125.032-.11.027-.125.033-.11.026-.125.031-.106.026-.134.031-.106.024-.13.03-.105.025-.135.03-.1.022-.144.031-.096.02-.15.032-.086.018-.187.037-.053.011-.24.047-.052.01-.188.036-.086.015-.154.028-.096.017-.144.025-.105.018-.135.023-.11.017-.134.022-.11.017-.13.021-.11.017-.135.019-.11.016-.13.019-.115.015-.13.018-.115.015-.13.017-.115.014-.13.016-.115.013-.13.015-.115.013-.13.014-.12.013-.129.013-.115.011-.13.013-.115.01-.13.012-.12.01-.129.01-.115.01-.135.01-.115.009-.134.009-.115.008-.13.008-.12.007-.13.007-.12.006-.134.007-.115.005-.135.006-.115.005-.134.005-.115.004-.14.004-.11.003-.144.004-.11.002-.15.003-.1.001-.168.002h-.086l-.25.001h-.254l-.082-.001-.168-.002-.1-.001-.154-.003-.106-.002-.144-.004-.11-.003-.14-.004-.115-.004-.139-.005-.11-.005-.14-.006-.115-.005-.134-.007-.115-.006-.135-.007-.115-.007-.134-.008-.116-.008-.13-.01-.12-.008-.129-.01-.115-.01-.134-.01-.116-.01-.13-.011-.12-.011-.129-.013-.115-.011-.13-.013-.115-.013-.13-.014-.115-.013-.13-.015-.114-.013-.13-.016-.115-.014-.13-.017-.115-.015-.13-.018-.115-.015-.13-.019-.115-.016-.13-.02-.11-.016-.134-.02-.11-.018-.135-.022-.105-.017-.14-.023-.1-.018-.144-.025-.096-.017-.159-.028-.081-.015-.192-.036-.048-.01-.24-.047-.058-.01-.182-.038-.087-.018-.153-.032-.096-.02-.14-.03-.1-.023-.135-.03-.105-.024-.135-.03-.105-.025-.13-.031-.106-.026-.13-.031-.105-.026-.13-.033-.105-.027-.13-.032-.105-.029-.125-.033-.11-.029-.125-.034-.106-.03-.125-.034-.11-.03-.125-.036-.105-.03-.125-.036-.106-.032-.125-.037-.105-.032-.125-.038-.106-.033-.124-.039-.106-.033-.125-.04-.1-.033-.13-.04-.101-.035-.125-.042-.1-.034-.13-.043-.101-.034-.125-.044-.1-.035-.13-.046-.096-.034-.13-.048-.091-.034-.14-.05-.086-.032-.144-.055-.081-.03-.154-.06-.067-.025-.192-.075-.029-.012-.225-.09-.221-.09-.039-.014-.182-.077-.062-.026-.159-.066-.072-.031-.144-.063-.081-.034-.14-.061-.081-.036-.135-.06-.086-.038-.13-.06-.086-.04-.13-.059-.086-.04-.13-.06-.09-.042-.126-.06-.086-.042-.13-.061-.086-.042-.125-.062-.086-.043-.13-.063-.086-.043-.125-.064-.086-.044-.125-.064-.087-.044-.124-.066-.082-.044-.13-.067-.081-.044-.125-.068-.082-.044-.13-.07-.08-.043-.13-.073-.077-.042-.13-.074-.072-.042-.139-.077-.067-.04-.14-.08-.067-.038-.144-.085-.057-.035-.154-.09-.048-.03-.168-.1-.033-.022-.188-.115-.014-.008a33.84 33.84 0 0 1-1.008-.643l-.005-.004-.192-.127-.024-.016-.173-.116-.033-.023-.159-.11-.043-.028-.153-.106-.044-.031-.148-.105-.048-.033-.144-.104-.053-.035-.14-.103-.052-.036-.14-.103-.052-.037-.14-.103-.052-.038-.135-.104-.052-.038-.14-.105-.048-.038-.139-.106-.048-.038-.139-.108-.048-.037-.14-.11-.042-.036-.144-.113-.044-.034-.144-.116-.038-.032-.149-.12-.033-.029-.15-.125-.028-.025-.158-.131-.024-.02-.164-.139-.014-.013-.173-.149-.005-.005a38.822 38.822 0 0 1-2.76-2.633 38.565 38.565 0 0 1-6.633-9.546 38.545 38.545 0 0 1 9.393-12.178l.005-.005.173-.149.014-.013.164-.139.024-.02.158-.131.029-.025.149-.125.033-.029.149-.12.038-.032.144-.116.044-.034.144-.113.043-.035.139-.111.048-.037.14-.108.047-.038.14-.106.047-.038.14-.105.052-.038.135-.104.053-.038.139-.103.053-.037.139-.103.053-.036.139-.103.053-.035.144-.104.048-.033.148-.105.044-.031.153-.106.043-.028.159-.11.033-.023.173-.116.024-.016.192-.126.005-.005c.331-.219.667-.433 1.008-.643l.014-.008.188-.115.033-.021.168-.1.048-.03.154-.091.057-.035.144-.085.068-.037.139-.081.067-.04.14-.077.071-.042.13-.074.077-.042.13-.073.08-.043.13-.07.082-.044.125-.068.081-.044.015-.007c-2.947-5.462-4.613-11.73-4.613-18.4 0-8.58 2.65-16.293 7.402-22.694a38.037 38.037 0 0 1 9.552 3.45 38.653 38.653 0 0 1 10.958 8.53zm-5.467 34.273a29.291 29.291 0 0 0-.893.018l-.11.003c-.274.011-.543.025-.812.043l-.076.005-.034.003c-.134.009-.269.02-.408.031l-.106.01c-.086.006-.163.014-.244.022-.322.031-.644.067-.96.109l-.106.014-.01.001c-.364.05-.724.105-1.084.168l-.092.016-.057.01c-.187.034-.375.07-.567.107l-.312.065a25.98 25.98 0 0 0-.93.214c-.946.234-1.873.515-2.78.84l-.014.004-.01.004c-.509.183-1.008.38-1.507.59l-.063.027-.052.023c-.144.062-.288.125-.432.19l-.096.042c-.096.044-.192.088-.284.133l-.096.044c-.168.079-.33.158-.494.24l-.077.036-.048.026c-.062.032-.13.063-.192.095-.057.032-.12.063-.182.095a28.847 28.847 0 0 0-6.327 4.461c-.048.047-.1.094-.148.14-.096.088-.188.176-.279.265-.057.055-.11.109-.168.164-.163.163-.331.328-.49.495l-.047.049-.034.033-.038.042-.068.066c-.09.099-.187.198-.278.298-.158.172-.317.345-.47.52-.063.07-.12.141-.183.212l-.053.062-.038.041c-.312.364-.614.735-.907 1.115-.187.239-.365.482-.547.727 5.236 7.22 13.732 11.919 23.318 11.919 9.58 0 18.077-4.698 23.314-11.919l-.063-.084-.019-.028-.043-.056-.024-.034-.034-.05h-.005l-.024-.036-.033-.048h-.005v-.001l-.024-.037-.038-.046v-.001l-.03-.037-.033-.045v-.002l-.029-.037-.033-.044v-.002l-.029-.038-.034-.043v-.001l-.004-.001-.03-.038-.028-.042-.005-.002-.029-.038-.033-.043v-.003l-.029-.037-.034-.042V71.1l-.004-.002-.03-.037-.033-.042v-.003l-.029-.037-.033-.042-.005-.001v-.002l-.029-.037-.033-.041v-.002l-.005-.002-.029-.037-.034-.04v-.004l-.028-.037-.034-.04-.005-.003v-.001l-.029-.037-.033-.04v-.002l-.005-.002-.029-.036-.033-.04v-.003l-.005-.002-.029-.036-.034-.04v-.002l-.004-.003-.03-.035-.033-.04v-.002l-.005-.003-.028-.035-.034-.04v-.002l-.005-.003-.029-.034-.033-.04v-.003l-.005-.002-.029-.034-.033-.04-.005-.003v-.003l-.029-.034-.034-.04-.004-.002v-.003l-.03-.034-.033-.038-.005-.004-.004-.003-.03-.033-.033-.039v-.004l-.005-.003-.028-.032-.034-.04-.005-.003v-.003l-.029-.032-.038-.04v-.003l-.005-.003-.029-.032-.033-.039-.005-.004v-.003l-.029-.031-.038-.04v-.004l-.005-.003-.029-.03-.033-.04-.005-.004-.005-.003-.024-.03-.038-.04-.005-.004v-.004l-.029-.03-.038-.038v-.005l-.005-.004-.029-.03-.034-.038-.004-.004-.005-.004-.029-.03-.034-.038-.004-.005-.005-.004-.029-.028-.034-.039-.004-.005-.005-.004-.024-.028-.039-.039-.004-.005-.005-.004-.024-.028-.039-.038-.004-.005-.005-.004-.024-.028-.039-.038-.004-.006-.005-.004-.024-.027-.039-.038-.004-.006-.005-.004-.029-.026-.034-.039-.01-.005v-.005l-.028-.025-.038-.039-.005-.006-.005-.004-.024-.025-.038-.04-.005-.005-.005-.005-.024-.024-.038-.039-.01-.006v-.005l-.029-.024-.038-.038-.005-.007-.005-.004-.024-.024-.038-.039-.01-.006v-.005l-.024-.023-.043-.039-.005-.007-.005-.004-.024-.022-.038-.04-.01-.007-.004-.004-.02-.022-.043-.039-.005-.007-.004-.005-.024-.021-.039-.04-.01-.007-.004-.004-.024-.02-.039-.04-.01-.008-.004-.004-.02-.02-.042-.04-.01-.008-.005-.004-.019-.02-.043-.04-.01-.008v-.004l-.024-.019-.043-.04-.005-.008-.005-.004-.024-.019-.043-.04-.005-.008-.004-.004-.024-.018-.044-.04-.01-.009v-.004l-.018-.017-.048-.04-.01-.01-.005-.003-.019-.018-.043-.04-.01-.009-.005-.003-.019-.017-.043-.04-.01-.01-.004-.004-.02-.015-.043-.04-.01-.01-.004-.004-.02-.016-.043-.04-.014-.01V67.3l-.02-.014-.047-.04-.01-.011-.005-.004-.014-.014-.048-.04-.01-.01-.004-.005-.02-.013-.043-.04-.014-.011-.005-.004-.014-.013-.048-.04-.01-.012-.005-.004-.014-.012-.048-.04-.015-.012-.004-.003-.015-.012-.048-.041-.014-.012v-.003l-.015-.011-.052-.042-.01-.011-.005-.003-.014-.011-.048-.041-.015-.012-.004-.004-.01-.01-.053-.041-.014-.013-.005-.003-.01-.009-.052-.042-.015-.012-.005-.003-.01-.009-.047-.041-.02-.013v-.003l-.014-.008-.048-.042-.019-.014v-.002l-.01-.008-.052-.042-.02-.014v-.002l-.01-.007-.052-.042-.02-.014v-.002l-.009-.007-.053-.042-.019-.014v-.002l-.01-.006-.052-.043-.02-.014-.004-.002-.005-.006-.053-.042-.019-.015-.005-.002-.005-.004-.052-.043-.024-.016V66.1l-.005-.004-.058-.043-.019-.016v-.001l-.005-.003-.057-.044-.02-.016h-.004v-.003l-.058-.044-.024-.016v-.001l-.005-.002-.057-.044-.02-.016-.004-.002-.058-.044-.024-.017v-.001l-.062-.045-.02-.017a28.645 28.645 0 0 0-14.875-5.54H109.09l-.082-.006-.029-.002-.01-.001-.014-.001-.057-.004-.044-.003h-.014l-.014-.002-.039-.002-.057-.004-.02-.001-.01-.001-.023-.001-.082-.005-.014-.001c-.087-.005-.168-.01-.25-.013h-.005l-.028-.002-.063-.003h-.024l-.014-.002h-.029l-.043-.003-.039-.001-.019-.001-.024-.001-.029-.002-.048-.001-.028-.001h-.015l-.019-.001-.067-.003h-.039l-.12-.004h-.01l-.1-.003h-.019l-.034-.001-.057-.001h-.044l-.028-.001-.044-.001h-.033l-.024-.001H107.232l-.048-.001h-.067l-.063-.001h-.273zm34.877 11.918c5.236 7.22 13.732 11.919 23.318 11.919 9.58 0 18.077-4.698 23.314-11.919-5.237-7.22-13.733-11.918-23.314-11.918H164.832l-.086.001H164.702l-.067.001h-.053l-.004.001c-9.423.127-17.756 4.795-22.92 11.915zm9.345-29.937c.35-1.793.533-3.645.533-5.54 0-11.156-6.34-20.843-15.6-25.64-9.264 4.797-15.6 14.484-15.6 25.64 0 1.895.182 3.747.528 5.54.144.56.269 1.125.384 1.695 2.069 8.015 7.498 14.683 14.688 18.407 7.19-3.724 12.614-10.392 14.683-18.407.115-.57.245-1.135.384-1.695zM96.106 25.544a28.706 28.706 0 0 0-2.17 10.996 28.76 28.76 0 0 0 4.171 14.956l.096-.023.135-.03.105-.023.135-.03.1-.023.14-.03.096-.021.153-.032.087-.018.182-.037.058-.011.24-.047.048-.01.192-.035.081-.016.159-.028.096-.017.144-.025.1-.018.14-.023.105-.017.135-.022.11-.017.134-.021.11-.017.13-.02.116-.015.13-.019.114-.016.13-.017.115-.015.13-.017.115-.014.13-.016.115-.013.13-.015.115-.013.13-.014.114-.013.13-.013.115-.011.13-.013.12-.01.13-.012.115-.01.134-.011.115-.01.13-.01.12-.008.13-.009.115-.008.134-.008.115-.007.135-.007.115-.007.134-.006.115-.006.14-.005.11-.005.14-.005.114-.004.14-.004.11-.003.144-.004.106-.002.153-.003.101-.001.168-.002h.082l.254-.001h.25l.086.001.168.002.1.001.15.003.11.002.144.004.11.003.14.004.115.004.134.005.115.005.135.005.115.006.134.006.12.007.13.007.12.007.13.008.115.008.134.01.25.018.115.009.13.011.12.01.13.012.114.01.13.013.245.024.12.013.13.014.115.013.13.015.114.013.13.016.115.014.13.017.115.015.13.017.115.016.13.019.052.007a29.231 29.231 0 0 0-.528-4.973c-.139-.56-.269-1.124-.384-1.693-2.121-8.233-7.79-15.045-15.273-18.704l-.087-.043-.033.08zm79.54-.037c-7.483 3.659-13.152 10.471-15.278 18.704-.115.569-.24 1.133-.38 1.693a28.753 28.753 0 0 0-.527 4.973l.053-.007.13-.019.114-.016.13-.017.115-.015.13-.017.115-.014.13-.016.115-.013.13-.015.115-.013.13-.014.114-.013.13-.013.115-.011.13-.013.12-.01.13-.012.115-.01.134-.011.115-.01.13-.01.12-.008.13-.009.115-.008.134-.008.115-.007.135-.007.115-.007.134-.006.115-.006.14-.005.11-.005.14-.005.114-.004.14-.004.11-.003.144-.004.106-.002.153-.003.101-.001.168-.002h.082l.254-.001h.25l.086.001.168.002.1.001.15.003.11.002.144.004.11.003.14.004.115.004.134.005.115.005.135.005.115.006.134.006.12.007.13.007.12.007.13.008.115.008.134.01.25.018.115.009.13.011.12.01.13.012.114.01.13.013.245.024.12.013.13.014.115.013.13.015.114.013.13.016.115.014.13.017.115.015.13.017.115.016.13.019.11.016.134.02.11.016.13.02.11.018.135.022.11.017.135.023.105.018.144.025.096.017.154.028.086.016.188.035.052.01.24.047.053.01.187.038.087.018.149.032.096.02.144.03.1.023.135.03.105.024.13.03.096.023a28.718 28.718 0 0 0 4.176-14.956c0-3.893-.773-7.607-2.17-10.996l-.033-.08-.087.043z"/><g fill-rule="nonzero"><path d="M8.361 140.579v-12.857h4.554v-2.681H.54v2.681h4.555v12.857zM22.32 140.58h3.142v-6.735c0-1.592.921-2.67 2.48-2.67 1.498 0 2.272.931 2.272 2.474v6.93h3.155V133c0-2.742-1.523-4.444-4.162-4.444-1.805 0-3.057.796-3.732 2.29h-.062v-6.539H22.32v16.273zM48.482 130.87c1.46 0 2.467 1.003 2.529 2.558h-5.132c.11-1.518 1.166-2.559 2.603-2.559zm2.566 6.085c-.307.918-1.24 1.482-2.431 1.482-1.658 0-2.775-1.151-2.775-2.866v-.196h8.201v-.967c0-3.6-2.173-5.89-5.598-5.89-3.487 0-5.709 2.413-5.709 6.184 0 3.759 2.222 6.073 5.832 6.073 2.885 0 5.033-1.518 5.39-3.82h-2.91zM86.258 137.886h-6.814v-12.845h-3.253v15.538h10.067zM100.941 140.775c3.61 0 5.869-2.29 5.869-6.134 0-3.796-2.284-6.123-5.869-6.123-3.56 0-5.856 2.34-5.856 6.123 0 3.832 2.259 6.134 5.856 6.134zm0-2.412c-1.657 0-2.664-1.36-2.664-3.722 0-2.315 1.007-3.71 2.664-3.71 1.658 0 2.664 1.383 2.664 3.71 0 2.363-.994 3.722-2.664 3.722zM117.06 126.094v2.632h-1.607v2.376h1.608v6.281c0 2.315 1.08 3.233 3.83 3.233a8.78 8.78 0 0 0 1.523-.122v-2.327a6.71 6.71 0 0 1-.786.05c-.958 0-1.412-.442-1.412-1.348v-5.767h2.198v-2.376h-2.198v-2.632h-3.155zM142.842 128.726h-3.155v6.747c0 1.604-.92 2.657-2.381 2.657-1.461 0-2.26-.857-2.26-2.46v-6.944h-3.142v7.604c0 2.756 1.694 4.42 4.26 4.42 1.804 0 2.97-.832 3.572-2.313h.062v2.142h3.044v-11.853zM152.504 132.216c0 1.727 1.154 2.878 3.389 3.392l2.197.49c1.069.257 1.486.588 1.486 1.2 0 .771-.761 1.249-2.013 1.249-1.314 0-2.124-.551-2.272-1.555h-3.069c.16 2.277 2.124 3.783 5.242 3.783 3.119 0 5.243-1.518 5.243-3.82 0-1.763-.958-2.682-3.34-3.208l-2.234-.49c-1.068-.245-1.584-.649-1.584-1.237 0-.771.761-1.273 1.89-1.273 1.204 0 2.002.6 2.063 1.53h2.91c-.037-2.265-2.001-3.759-4.935-3.759-3.008 0-4.973 1.47-4.973 3.698zM192.957 140.579l5.23-15.538h-3.548l-3.56 12.183h-.074l-3.56-12.183h-3.647l5.23 15.538zM207.333 140.58h3.155v-11.854h-3.155v11.853zm1.584-13.14c.933 0 1.707-.71 1.707-1.652 0-.93-.774-1.641-1.707-1.641s-1.694.71-1.694 1.64c0 .944.761 1.654 1.694 1.654zM227.394 140.714c2.995 0 4.837-2.302 4.837-6.073 0-3.76-1.842-6.05-4.85-6.05-1.694 0-3.007.797-3.67 2.156h-.062v-6.44h-3.155v16.272h3.106v-2.032h.062c.663 1.371 2 2.167 3.732 2.167zm-1.068-9.588c1.62 0 2.676 1.372 2.676 3.515 0 2.155-1.043 3.538-2.676 3.538-1.62 0-2.689-1.408-2.701-3.526.012-2.118 1.08-3.527 2.7-3.527zM246.951 130.87c1.461 0 2.48 1.003 2.53 2.558h-5.12c.098-1.518 1.154-2.559 2.59-2.559zm2.566 6.085c-.295.918-1.24 1.482-2.419 1.482-1.67 0-2.774-1.151-2.774-2.866v-.196h8.2v-.967c0-3.6-2.185-5.89-5.598-5.89-3.486 0-5.708 2.413-5.708 6.184 0 3.759 2.21 6.073 5.819 6.073 2.897 0 5.046-1.518 5.39-3.82h-2.91zM261.745 132.216c0 1.727 1.154 2.878 3.388 3.392l2.186.49c1.08.257 1.497.588 1.497 1.2 0 .771-.773 1.249-2.025 1.249-1.302 0-2.112-.551-2.26-1.555h-3.08c.171 2.277 2.135 3.783 5.254 3.783 3.118 0 5.242-1.518 5.242-3.82 0-1.763-.958-2.682-3.34-3.208l-2.234-.49c-1.068-.245-1.584-.649-1.584-1.237 0-.771.762-1.273 1.891-1.273 1.203 0 1.989.6 2.063 1.53h2.91c-.05-2.265-2.002-3.759-4.936-3.759-3.008 0-4.972 1.47-4.972 3.698z"/></g></g></svg>