<?xml version="1.0" encoding="UTF-8"?>
<svg width="272px" height="141px" viewBox="0 0 272 141" version="1.1" xmlns="http://www.w3.org/2000/svg" xmlns:xlink="http://www.w3.org/1999/xlink">
    <!-- Generator: Sketch 42 (36781) - http://www.bohemiancoding.com/sketch -->
    <title>lotus-white</title>
    <desc>Created with Sketch.</desc>
    <defs></defs>
    <g id="mocks" stroke="none" stroke-width="1" fill="none" fill-rule="evenodd">
        <g id="Desktop-HD" transform="translate(-584.000000, -99.000000)" fill="#FFFFFF">
            <g id="lotus-white" transform="translate(584.000000, 99.000000)">
                <g id="Group" transform="translate(72.000000, 0.000000)">
                    <g id="Shape">
                        <path d="M40.248,25.8249422 C43.656,14.0504917 52.536,4.59583391 63.936,0.413476008 C75.336,4.59583391 84.216,14.0504917 87.624,25.8249422 C90.7152,22.3589555 94.4256,19.4574117 98.5824,17.2943552 C101.5584,15.7438202 104.7648,14.5726253 108.1344,13.845196 C112.8816,20.2463816 115.536,27.9581899 115.536,36.5397402 C115.536,43.2087236 113.8656,49.4772122 110.9232,54.9389418 L110.9328,54.9461536 L111.0144,54.9899051 L111.144,55.0581767 L111.2256,55.1019283 L111.3552,55.172123 L111.432,55.2153938 L111.5616,55.2875117 L111.6384,55.3298208 L111.7728,55.4043427 L111.8448,55.4456903 L111.9792,55.5230968 L112.0512,55.5630021 L112.1904,55.6437741 L112.2528,55.6812755 L112.3968,55.7663746 L112.4592,55.8005104 L112.6128,55.8918597 L112.6608,55.9211877 L112.8288,56.021672 L112.8624,56.0433074 L113.0496,56.1582152 L113.064,56.1663886 C113.4048,56.3755305 113.736,56.5899611 114.072,56.8091995 L114.0768,56.8135266 L114.2688,56.9399733 L114.2928,56.9558393 L114.4608,57.0717087 L114.4944,57.0947865 L114.6576,57.2048865 L114.696,57.2327721 L114.8544,57.3390258 L114.8976,57.3702769 L115.0944,57.5082625 L115.2384,57.6116315 L115.2864,57.6467289 L115.4304,57.7496171 L115.4832,57.7861568 L115.6224,57.8885642 L115.6704,57.9260655 L115.8096,58.0294346 L115.8624,58.0674166 L116.0016,58.1712664 L116.0544,58.2092485 L116.1888,58.3140599 L116.2416,58.352042 L116.3808,58.4582957 L116.4288,58.495797 L116.568,58.6044547 L116.6112,58.6409944 L116.7552,58.7515752 L116.7984,58.7866726 L116.9376,58.9001381 L116.9808,58.9337931 L117.1248,59.0501433 L117.168,59.0818752 L117.312,59.2020717 L117.3456,59.2309189 L117.4992,59.3559233 L117.528,59.3809242 L117.6864,59.5121787 L117.7104,59.5323718 L117.8736,59.6708381 L117.888,59.6843002 L118.0608,59.832863 L118.0656,59.8376709 C119.0256,60.6699116 119.9472,61.5492693 120.8208,62.4718977 L120.9264,62.5815169 C123.5472,65.3671913 125.7552,68.5447064 127.4592,72.0164625 C125.736,75.5334125 123.4848,78.7489096 120.8208,81.561508 C119.9472,82.4836557 119.0256,83.3630134 118.0656,84.1952541 L118.0608,84.2000619 L117.888,84.3486248 L117.8736,84.3620868 L117.7104,84.5005532 L117.6864,84.5207462 L117.528,84.6520008 L117.4992,84.6770017 L117.3456,84.8020061 L117.312,84.8308532 L117.168,84.9510497 L117.1248,84.9827816 L116.9808,85.0991318 L116.9376,85.1327869 L116.7984,85.2462524 L116.7552,85.2813498 L116.6112,85.3919305 L116.568,85.4289511 L116.4288,85.5371279 L116.3808,85.5746292 L116.2416,85.680883 L116.1888,85.7188651 L116.0544,85.8236764 L116.0016,85.8621393 L115.8624,85.9659891 L115.8096,86.0039712 L115.6704,86.1068594 L115.6224,86.1443607 L115.4832,86.2467682 L115.4304,86.2833079 L115.2864,86.3861961 L115.2384,86.4212935 L115.0944,86.5246625 L115.0464,86.5583175 L114.8976,86.6626481 L114.8544,86.6938992 L114.696,86.8001529 L114.6576,86.8280385 L114.4944,86.9381385 L114.4608,86.9612162 L114.2928,87.0770857 L114.2688,87.0934324 L114.0768,87.2198791 L114.072,87.2237254 C113.736,87.4434446 113.4048,87.6573944 113.064,87.8665364 L113.0496,87.8747097 L112.8624,87.9896176 L112.8288,88.0117338 L112.6608,88.1117373 L112.6128,88.1410652 L112.4592,88.2324146 L112.3968,88.2665504 L112.2528,88.3516495 L112.1904,88.3896316 L112.0512,88.4699229 L111.9792,88.5098281 L111.8448,88.5872347 L111.7728,88.6285823 L111.6384,88.7031041 L111.5616,88.7454133 L111.432,88.8175312 L111.3552,88.8608019 L111.2256,88.9309967 L111.144,88.9747482 L111.0144,89.0430199 L110.9328,89.0872522 L110.808,89.1540814 L110.7264,89.1983137 L110.5968,89.2637007 L110.5152,89.307933 L110.3856,89.3723583 L110.2992,89.4161098 L110.1744,89.4795736 L110.088,89.5228443 L109.9632,89.5858273 L109.8768,89.6286173 L109.7472,89.6906387 L109.6608,89.7329478 L109.536,89.7940077 L109.4496,89.8358361 L109.32,89.8964151 L109.2336,89.9377627 L109.104,89.997861 L109.0176,90.038247 L108.888,90.0978645 L108.8016,90.1368081 L108.6672,90.1969064 L108.5856,90.2348885 L108.4512,90.294506 L108.3648,90.3310457 L108.2256,90.3921055 L108.1488,90.4262413 L108.0048,90.4887435 L107.928,90.5199946 L107.7744,90.5863431 L107.712,90.6123055 L107.5248,90.6887505 L107.4912,90.7031741 L107.2656,90.7935619 L107.0448,90.8829881 L107.0112,90.8954885 L106.824,90.9695296 L106.7568,90.9950112 L106.5984,91.0551095 L106.5216,91.085399 L106.3776,91.1397278 L106.2864,91.1719405 L106.152,91.222423 L106.0608,91.2560781 L105.9264,91.3041567 L105.8304,91.3378117 L105.7008,91.3839672 L105.6048,91.4185838 L105.4752,91.4628161 L105.3744,91.4969519 L105.2496,91.5402226 L105.1488,91.5743584 L105.024,91.6161868 L104.9184,91.6503226 L104.7936,91.6911894 L104.688,91.7243637 L104.568,91.7642689 L104.4624,91.7974432 L104.3376,91.8363868 L104.232,91.8685995 L104.1072,91.9065816 L104.0016,91.9387943 L103.8768,91.9758148 L103.7712,92.0075467 L103.6464,92.0436056 L103.536,92.0743759 L103.4112,92.1099541 L103.3056,92.1402436 L103.1808,92.1748602 L103.0752,92.2041882 L102.9456,92.238324 L102.84,92.2671711 L102.7152,92.3003454 L102.6048,92.3287118 L102.48,92.3609244 L102.3696,92.3883292 L102.2448,92.4205419 L102.1344,92.4469851 L102.0096,92.4782362 L101.904,92.5037179 L101.7696,92.534969 L101.664,92.5594891 L101.5344,92.5897786 L101.4288,92.6138179 L101.2944,92.6441074 L101.1936,92.6662236 L101.0496,92.6969939 L100.9536,92.7171869 L100.8048,92.7493996 L100.7184,92.7671886 L100.5312,92.8042092 L100.4784,92.8152672 L100.2384,92.8619035 L100.1856,92.8715192 L99.9984,92.9075782 L99.912,92.9229633 L99.7584,92.9508489 L99.6624,92.9681572 L99.5184,92.9931581 L99.4128,93.0109472 L99.2784,93.0340249 L99.168,93.0513332 L99.0336,93.0734494 L98.9232,93.0902769 L98.7936,93.1109507 L98.6832,93.1277782 L98.5488,93.1470096 L98.4384,93.1633563 L98.3088,93.1816262 L98.1936,93.1974922 L98.064,93.2148005 L97.9488,93.2301856 L97.8192,93.2465323 L97.704,93.2609559 L97.5744,93.2768219 L97.4592,93.2902839 L97.3296,93.3051882 L97.2144,93.3181695 L97.0848,93.3321123 L96.9648,93.3446127 L96.8352,93.3575939 L96.72,93.3691328 L96.5904,93.3816332 L96.4752,93.3926913 L96.3456,93.4042302 L96.2256,93.4143267 L96.096,93.424904 L95.9808,93.4340389 L95.8464,93.4441354 L95.7312,93.4527896 L95.5968,93.4619245 L95.4816,93.4696171 L95.352,93.4777904 L95.232,93.4850022 L95.1024,93.492214 L94.9824,93.4984642 L94.848,93.5051952 L94.7328,93.5104839 L94.5984,93.5162533 L94.4832,93.5210612 L94.3488,93.5263498 L94.2336,93.5301961 L94.0944,93.5340424 L93.984,93.5374079 L93.84,93.5407734 L93.7296,93.5431773 L93.5808,93.5455813 L93.48,93.5470236 L93.312,93.5489468 L93.2256,93.5494276 L92.976,93.5503891 L92.7216,93.5494276 L92.64,93.5489468 L92.472,93.5470236 L92.3712,93.5455813 L92.2176,93.5431773 L92.112,93.5407734 L91.968,93.5374079 L91.8576,93.5340424 L91.7184,93.5301961 L91.6032,93.5263498 L91.464,93.5210612 L91.3536,93.5162533 L91.2144,93.5104839 L91.0992,93.5051952 L90.9648,93.4984642 L90.8496,93.492214 L90.7152,93.4850022 L90.6,93.4777904 L90.4656,93.4696171 L90.3504,93.4619245 L90.2208,93.4527896 L90.1008,93.4441354 L89.9712,93.4340389 L89.856,93.424904 L89.7216,93.4143267 L89.6064,93.4042302 L89.4768,93.3926913 L89.3568,93.3816332 L89.2272,93.3691328 L89.112,93.3575939 L88.9824,93.3446127 L88.8672,93.3321123 L88.7376,93.3181695 L88.6224,93.3051882 L88.4928,93.2902839 L88.3776,93.2768219 L88.248,93.2609559 L88.1328,93.2465323 L88.0032,93.2301856 L87.888,93.2148005 L87.7584,93.1974922 L87.6432,93.1816262 L87.5136,93.1633563 L87.3984,93.1470096 L87.2688,93.1277782 L87.1584,93.1109507 L87.024,93.0902769 L86.9136,93.0734494 L86.7792,93.0513332 L86.6736,93.0340249 L86.5344,93.0109472 L86.4336,92.9931581 L86.2896,92.9681572 L86.1936,92.9508489 L86.0352,92.9229633 L85.9536,92.9075782 L85.7616,92.8715192 L85.7136,92.8619035 L85.4736,92.8152672 L85.416,92.8042092 L85.2336,92.7671886 L85.1472,92.7493996 L84.9936,92.7171869 L84.8976,92.6969939 L84.7584,92.6662236 L84.6576,92.6441074 L84.5232,92.6138179 L84.4176,92.5897786 L84.2832,92.5594891 L84.1776,92.534969 L84.048,92.5037179 L83.9424,92.4782362 L83.8128,92.4469851 L83.7072,92.4205419 L83.5776,92.3883292 L83.472,92.3609244 L83.3424,92.3287118 L83.2368,92.3003454 L83.112,92.2671711 L83.0016,92.238324 L82.8768,92.2041882 L82.7712,92.1748602 L82.6464,92.1402436 L82.536,92.1099541 L82.4112,92.0743759 L82.3056,92.0436056 L82.1808,92.0075467 L82.0752,91.9758148 L81.9504,91.9387943 L81.8448,91.9065816 L81.72,91.8685995 L81.6144,91.8363868 L81.4896,91.7974432 L81.384,91.7642689 L81.2592,91.7243637 L81.1584,91.6911894 L81.0288,91.6503226 L80.928,91.6161868 L80.8032,91.5743584 L80.7024,91.5402226 L80.5728,91.4969519 L80.472,91.4628161 L80.3472,91.4185838 L80.2464,91.3839672 L80.1168,91.3378117 L80.0208,91.3041567 L79.8912,91.2560781 L79.8,91.222423 L79.6608,91.1719405 L79.5744,91.1397278 L79.4304,91.085399 L79.3488,91.0551095 L79.1952,90.9950112 L79.128,90.9695296 L78.936,90.8954885 L78.9072,90.8829881 L78.6816,90.7935619 L78.4608,90.7031741 L78.4224,90.6887505 L78.24,90.6123055 L78.1776,90.5863431 L78.0192,90.5199946 L77.9472,90.4887435 L77.8032,90.4262413 L77.7216,90.3921055 L77.5824,90.3310457 L77.5008,90.294506 L77.3664,90.2348885 L77.28,90.1969064 L77.1504,90.1368081 L77.064,90.0978645 L76.9344,90.038247 L76.848,89.997861 L76.7184,89.9377627 L76.6272,89.8964151 L76.5024,89.8358361 L76.416,89.7940077 L76.2864,89.7329478 L76.2,89.6906387 L76.0752,89.6286173 L75.9888,89.5858273 L75.8592,89.5228443 L75.7728,89.4795736 L75.648,89.4161098 L75.5616,89.3723583 L75.4368,89.307933 L75.3504,89.2637007 L75.2256,89.1983137 L75.144,89.1540814 L75.0144,89.0872522 L74.9328,89.0430199 L74.808,88.9747482 L74.7264,88.9309967 L74.5968,88.8608019 L74.5152,88.8175312 L74.3856,88.7454133 L74.3088,88.7031041 L74.1792,88.6285823 L74.1072,88.5872347 L73.968,88.5098281 L73.9008,88.4699229 L73.7616,88.3896316 L73.6944,88.3516495 L73.5504,88.2665504 L73.4928,88.2324146 L73.3392,88.1410652 L73.2912,88.1117373 L73.1232,88.0117338 L73.0896,87.9896176 L72.9024,87.8747097 L72.888,87.8665364 C72.5472,87.6573944 72.2112,87.4434446 71.88,87.2237254 L71.8752,87.2198791 L71.6832,87.0934324 L71.6592,87.0770857 L71.4864,86.9612162 L71.4528,86.9381385 L71.2944,86.8280385 L71.2512,86.8001529 L71.0976,86.6938992 L71.0544,86.6626481 L70.9056,86.5583175 L70.8576,86.5246625 L70.7136,86.4212935 L70.6608,86.3861961 L70.5216,86.2833079 L70.4688,86.2467682 L70.3296,86.1443607 L70.2768,86.1068594 L70.1376,86.0039712 L70.0848,85.9659891 L69.9504,85.8621393 L69.8976,85.8236764 L69.7584,85.7188651 L69.7104,85.680883 L69.5712,85.5746292 L69.5232,85.5371279 L69.384,85.4289511 L69.336,85.3919305 L69.1968,85.2813498 L69.1536,85.2462524 L69.0096,85.1327869 L68.9664,85.0991318 L68.8224,84.9827816 L68.784,84.9510497 L68.6352,84.8308532 L68.6016,84.8020061 L68.4528,84.6770017 L68.424,84.6520008 L68.2656,84.5207462 L68.2416,84.5005532 L68.0784,84.3620868 L68.064,84.3486248 L67.8912,84.2000619 L67.8864,84.1952541 C66.9216,83.3630134 66.0048,82.4841365 65.1264,81.561508 C64.7232,81.1312045 64.3248,80.6912853 63.936,80.2427119 C63.5472,80.6912853 63.1488,81.1312045 62.7408,81.561508 C61.8672,82.4836557 60.9456,83.3630134 59.9856,84.1952541 L59.9808,84.2000619 L59.808,84.3486248 L59.7936,84.3620868 L59.6304,84.5005532 L59.6064,84.5207462 L59.448,84.6520008 L59.4192,84.6770017 L59.2656,84.8020061 L59.232,84.8308532 L59.088,84.9510497 L59.0448,84.9827816 L58.9008,85.0991318 L58.8576,85.1327869 L58.7184,85.2462524 L58.6752,85.2813498 L58.5312,85.3919305 L58.488,85.4289511 L58.3488,85.5371279 L58.3008,85.5746292 L58.1616,85.680883 L58.1088,85.7188651 L57.9744,85.8236764 L57.9216,85.8621393 L57.7824,85.9659891 L57.7296,86.0039712 L57.5904,86.1068594 L57.5424,86.1443607 L57.4032,86.2467682 L57.3504,86.2833079 L57.2064,86.3861961 L57.1584,86.4212935 L57.0144,86.5246625 L56.9664,86.5583175 L56.8176,86.6626481 L56.7744,86.6938992 L56.616,86.8001529 L56.5776,86.8280385 L56.4144,86.9381385 L56.3808,86.9612162 L56.2128,87.0770857 L56.1888,87.0934324 L55.9968,87.2198791 L55.992,87.2237254 C55.656,87.4434446 55.3248,87.6573944 54.984,87.8665364 L54.9696,87.8747097 L54.7824,87.9896176 L54.744,88.0117338 L54.5808,88.1117373 L54.5328,88.1410652 L54.3792,88.2324146 L54.3168,88.2665504 L54.1728,88.3516495 L54.1104,88.3896316 L53.9712,88.4699229 L53.8992,88.5098281 L53.7648,88.5872347 L53.6928,88.6285823 L53.5584,88.7031041 L53.4816,88.7454133 L53.352,88.8175312 L53.2752,88.8608019 L53.1456,88.9309967 L53.064,88.9747482 L52.9344,89.0430199 L52.8528,89.0872522 L52.728,89.1540814 L52.6464,89.1983137 L52.5168,89.2637007 L52.4352,89.307933 L52.3056,89.3723583 L52.2192,89.4161098 L52.0944,89.4795736 L52.008,89.5228443 L51.8832,89.5858273 L51.7968,89.6286173 L51.6672,89.6906387 L51.5808,89.7329478 L51.456,89.7940077 L51.3696,89.8358361 L51.24,89.8964151 L51.1536,89.9377627 L51.024,89.997861 L50.9376,90.038247 L50.808,90.0978645 L50.7216,90.1368081 L50.5872,90.1969064 L50.5056,90.2348885 L50.3712,90.294506 L50.2848,90.3310457 L50.1456,90.3921055 L50.0688,90.4262413 L49.9248,90.4887435 L49.848,90.5199946 L49.6944,90.5863431 L49.632,90.6123055 L49.4448,90.6887505 L49.4112,90.7031741 L49.1856,90.7935619 L48.9648,90.8829881 L48.9312,90.8954885 L48.744,90.9695296 L48.6768,90.9950112 L48.5184,91.0551095 L48.4416,91.085399 L48.2976,91.1397278 L48.2064,91.1719405 L48.072,91.222423 L47.9808,91.2560781 L47.8464,91.3041567 L47.7504,91.3378117 L47.6208,91.3839672 L47.5248,91.4185838 L47.3952,91.4628161 L47.2944,91.4969519 L47.1696,91.5402226 L47.0688,91.5743584 L46.944,91.6161868 L46.8384,91.6503226 L46.7136,91.6911894 L46.608,91.7243637 L46.488,91.7642689 L46.3824,91.7974432 L46.2576,91.8363868 L46.152,91.8685995 L46.0272,91.9065816 L45.9216,91.9387943 L45.7968,91.9758148 L45.6912,92.0075467 L45.5664,92.0436056 L45.456,92.0743759 L45.3312,92.1099541 L45.2256,92.1402436 L45.1008,92.1748602 L44.9952,92.2041882 L44.8656,92.238324 L44.76,92.2671711 L44.6352,92.3003454 L44.5248,92.3287118 L44.4,92.3609244 L44.2896,92.3883292 L44.1648,92.4205419 L44.0544,92.4469851 L43.9296,92.4782362 L43.824,92.5037179 L43.6896,92.534969 L43.584,92.5594891 L43.4544,92.5897786 L43.3488,92.6138179 L43.2144,92.6441074 L43.1136,92.6662236 L42.9696,92.6969939 L42.8736,92.7171869 L42.7248,92.7493996 L42.6384,92.7671886 L42.4512,92.8042092 L42.3984,92.8152672 L42.1584,92.8619035 L42.1056,92.8715192 L41.9184,92.9075782 L41.832,92.9229633 L41.6784,92.9508489 L41.5824,92.9681572 L41.4384,92.9931581 L41.3328,93.0109472 L41.1984,93.0340249 L41.088,93.0513332 L40.9536,93.0734494 L40.8432,93.0902769 L40.7136,93.1109507 L40.6032,93.1277782 L40.4688,93.1470096 L40.3584,93.1633563 L40.2288,93.1816262 L40.1136,93.1974922 L39.984,93.2148005 L39.8688,93.2301856 L39.7392,93.2465323 L39.624,93.2609559 L39.4944,93.2768219 L39.3792,93.2902839 L39.2496,93.3051882 L39.1344,93.3181695 L39.0048,93.3321123 L38.8848,93.3446127 L38.7552,93.3575939 L38.64,93.3691328 L38.5104,93.3816332 L38.3952,93.3926913 L38.2656,93.4042302 L38.1456,93.4143267 L38.016,93.424904 L37.9008,93.4340389 L37.7664,93.4441354 L37.6512,93.4527896 L37.5168,93.4619245 L37.4016,93.4696171 L37.272,93.4777904 L37.152,93.4850022 L37.0224,93.492214 L36.9024,93.4984642 L36.768,93.5051952 L36.6528,93.5104839 L36.5184,93.5162533 L36.4032,93.5210612 L36.2688,93.5263498 L36.1536,93.5301961 L36.0144,93.5340424 L35.904,93.5374079 L35.76,93.5407734 L35.6496,93.5431773 L35.5008,93.5455813 L35.4,93.5470236 L35.232,93.5489468 L35.1456,93.5494276 L34.896,93.5503891 L34.6416,93.5494276 L34.56,93.5489468 L34.392,93.5470236 L34.2912,93.5455813 L34.1376,93.5431773 L34.032,93.5407734 L33.888,93.5374079 L33.7776,93.5340424 L33.6384,93.5301961 L33.5232,93.5263498 L33.384,93.5210612 L33.2736,93.5162533 L33.1344,93.5104839 L33.0192,93.5051952 L32.8848,93.4984642 L32.7696,93.492214 L32.6352,93.4850022 L32.52,93.4777904 L32.3856,93.4696171 L32.2704,93.4619245 L32.1408,93.4527896 L32.0208,93.4441354 L31.8912,93.4340389 L31.776,93.424904 L31.6416,93.4143267 L31.5264,93.4042302 L31.3968,93.3926913 L31.2768,93.3816332 L31.1472,93.3691328 L31.032,93.3575939 L30.9024,93.3446127 L30.7872,93.3321123 L30.6576,93.3181695 L30.5424,93.3051882 L30.4128,93.2902839 L30.2976,93.2768219 L30.168,93.2609559 L30.0528,93.2465323 L29.9232,93.2301856 L29.808,93.2148005 L29.6784,93.1974922 L29.5632,93.1816262 L29.4336,93.1633563 L29.3184,93.1470096 L29.1888,93.1277782 L29.0784,93.1109507 L28.944,93.0902769 L28.8336,93.0734494 L28.6992,93.0513332 L28.5936,93.0340249 L28.4544,93.0109472 L28.3536,92.9931581 L28.2096,92.9681572 L28.1136,92.9508489 L27.9552,92.9229633 L27.8736,92.9075782 L27.6816,92.8715192 L27.6336,92.8619035 L27.3936,92.8152672 L27.336,92.8042092 L27.1536,92.7671886 L27.0672,92.7493996 L26.9136,92.7171869 L26.8176,92.6969939 L26.6784,92.6662236 L26.5776,92.6441074 L26.4432,92.6138179 L26.3376,92.5897786 L26.2032,92.5594891 L26.0976,92.534969 L25.968,92.5037179 L25.8624,92.4782362 L25.7328,92.4469851 L25.6272,92.4205419 L25.4976,92.3883292 L25.392,92.3609244 L25.2624,92.3287118 L25.1568,92.3003454 L25.032,92.2671711 L24.9216,92.238324 L24.7968,92.2041882 L24.6912,92.1748602 L24.5664,92.1402436 L24.456,92.1099541 L24.3312,92.0743759 L24.2256,92.0436056 L24.1008,92.0075467 L23.9952,91.9758148 L23.8704,91.9387943 L23.7648,91.9065816 L23.64,91.8685995 L23.5344,91.8363868 L23.4096,91.7974432 L23.304,91.7642689 L23.1792,91.7243637 L23.0784,91.6911894 L22.9488,91.6503226 L22.848,91.6161868 L22.7232,91.5743584 L22.6224,91.5402226 L22.4928,91.4969519 L22.392,91.4628161 L22.2672,91.4185838 L22.1664,91.3839672 L22.0368,91.3378117 L21.9408,91.3041567 L21.8112,91.2560781 L21.72,91.222423 L21.5808,91.1719405 L21.4944,91.1397278 L21.3504,91.085399 L21.2688,91.0551095 L21.1152,90.9950112 L21.048,90.9695296 L20.856,90.8954885 L20.8272,90.8829881 L20.6016,90.7935619 L20.3808,90.7031741 L20.3424,90.6887505 L20.16,90.6123055 L20.0976,90.5863431 L19.9392,90.5199946 L19.8672,90.4887435 L19.7232,90.4262413 L19.6416,90.3921055 L19.5024,90.3310457 L19.4208,90.294506 L19.2864,90.2348885 L19.2,90.1969064 L19.0704,90.1368081 L18.984,90.0978645 L18.8544,90.038247 L18.768,89.997861 L18.6384,89.9377627 L18.5472,89.8964151 L18.4224,89.8358361 L18.336,89.7940077 L18.2064,89.7329478 L18.12,89.6906387 L17.9952,89.6286173 L17.9088,89.5858273 L17.7792,89.5228443 L17.6928,89.4795736 L17.568,89.4161098 L17.4816,89.3723583 L17.3568,89.307933 L17.2704,89.2637007 L17.1456,89.1983137 L17.064,89.1540814 L16.9344,89.0872522 L16.8528,89.0430199 L16.728,88.9747482 L16.6464,88.9309967 L16.5168,88.8608019 L16.4352,88.8175312 L16.3056,88.7454133 L16.2288,88.7031041 L16.0992,88.6285823 L16.0272,88.5872347 L15.888,88.5098281 L15.8208,88.4699229 L15.6816,88.3896316 L15.6144,88.3516495 L15.4704,88.2665504 L15.4128,88.2324146 L15.2592,88.1410652 L15.2112,88.1117373 L15.0432,88.0117338 L15.0096,87.9896176 L14.8224,87.8747097 L14.808,87.8665364 C14.4672,87.6573944 14.1312,87.4434446 13.8,87.2237254 L13.7952,87.2198791 L13.6032,87.0934324 L13.5792,87.0770857 L13.4064,86.9612162 L13.3728,86.9381385 L13.2144,86.8280385 L13.1712,86.8001529 L13.0176,86.6938992 L12.9744,86.6626481 L12.8256,86.5583175 L12.7776,86.5246625 L12.6336,86.4212935 L12.5808,86.3861961 L12.4416,86.2833079 L12.3888,86.2467682 L12.2496,86.1443607 L12.1968,86.1068594 L12.0576,86.0039712 L12.0048,85.9659891 L11.8704,85.8621393 L11.8176,85.8236764 L11.6784,85.7188651 L11.6304,85.680883 L11.4912,85.5746292 L11.4432,85.5371279 L11.304,85.4289511 L11.256,85.3919305 L11.1168,85.2813498 L11.0736,85.2462524 L10.9296,85.1327869 L10.8864,85.0991318 L10.7424,84.9827816 L10.704,84.9510497 L10.5552,84.8308532 L10.5216,84.8020061 L10.3728,84.6770017 L10.344,84.6520008 L10.1856,84.5207462 L10.1616,84.5005532 L9.9984,84.3620868 L9.984,84.3486248 L9.8112,84.2000619 L9.8064,84.1952541 C8.8416,83.3630134 7.9248,82.4841365 7.0464,81.561508 C4.3824,78.7489096 2.136,75.5334125 0.4128,72.0164625 C2.136,68.4990317 4.3824,65.2840153 7.0464,62.4718977 C7.9248,61.5492693 8.8416,60.6699116 9.8064,59.8376709 L9.8112,59.832863 L9.984,59.6843002 L9.9984,59.6708381 L10.1616,59.5323718 L10.1856,59.5121787 L10.344,59.3809242 L10.3728,59.3559233 L10.5216,59.2309189 L10.5552,59.2020717 L10.704,59.0818752 L10.7424,59.0501433 L10.8864,58.9337931 L10.9296,58.9001381 L11.0736,58.7866726 L11.1168,58.7515752 L11.256,58.6409944 L11.304,58.6044547 L11.4432,58.495797 L11.4912,58.4582957 L11.6304,58.352042 L11.6784,58.3140599 L11.8176,58.2092485 L11.8704,58.1712664 L12.0048,58.0674166 L12.0576,58.0294346 L12.1968,57.9260655 L12.2496,57.8885642 L12.3888,57.7861568 L12.4416,57.7496171 L12.5808,57.6467289 L12.6336,57.6116315 L12.7776,57.5082625 L12.8256,57.4746074 L12.9744,57.3702769 L13.0176,57.3390258 L13.1712,57.2327721 L13.2144,57.2048865 L13.3728,57.0947865 L13.4064,57.0717087 L13.5792,56.9558393 L13.6032,56.9399733 L13.7952,56.8135266 L13.8,56.8091995 C14.1312,56.5899611 14.4672,56.3755305 14.808,56.1663886 L14.8224,56.1582152 L15.0096,56.0433074 L15.0432,56.021672 L15.2112,55.9211877 L15.2592,55.8918597 L15.4128,55.8005104 L15.4704,55.7663746 L15.6144,55.6812755 L15.6816,55.6437741 L15.8208,55.5630021 L15.888,55.5230968 L16.0272,55.4456903 L16.0992,55.4043427 L16.2288,55.3298208 L16.3056,55.2875117 L16.4352,55.2153938 L16.5168,55.172123 L16.6464,55.1019283 L16.728,55.0581767 L16.8528,54.9899051 L16.9344,54.9461536 L16.9488,54.9389418 C14.0016,49.4772122 12.336,43.2087236 12.336,36.5397402 C12.336,27.9581899 14.9856,20.2463816 19.7376,13.845196 C23.1072,14.5726253 26.3136,15.7438202 29.2896,17.2943552 C33.4416,19.4574117 37.152,22.3589555 40.248,25.8249422 Z M34.7808,60.0982569 C34.6896,60.0987377 34.5936,60.0996993 34.4976,60.1011417 C34.296,60.1035456 34.0896,60.1088342 33.888,60.1155652 L33.7776,60.1194115 C33.504,60.1299888 33.2352,60.1444124 32.9664,60.1622015 L32.8896,60.1670094 L32.856,60.1698941 C32.7216,60.179029 32.5872,60.1896063 32.448,60.2011452 L32.3424,60.2102801 C32.256,60.2174919 32.1792,60.2251845 32.0976,60.232877 C31.776,60.2641281 31.4544,60.3001871 31.1376,60.3415347 L31.032,60.3559583 L31.0224,60.3574006 C30.6576,60.4064408 30.2976,60.462212 29.9376,60.5247142 L29.8464,60.5405801 L29.7888,60.5511574 C29.6016,60.5848124 29.4144,60.6208714 29.2224,60.6583727 C29.1168,60.6795273 29.016,60.7006819 28.9104,60.722798 C28.6896,60.7694343 28.4736,60.8184745 28.2576,60.8699186 C28.1616,60.8920347 28.0704,60.9141509 27.9792,60.9372286 C27.0336,61.1708906 26.1072,61.4516697 25.2,61.7766811 L25.1856,61.7814889 L25.176,61.7848544 C24.6672,61.9675531 24.168,62.1646754 23.6688,62.3747789 L23.6064,62.4017029 L23.5536,62.4247807 C23.4096,62.4868021 23.2656,62.549785 23.1216,62.6142104 L23.0256,62.6570003 C22.9296,62.7007519 22.8336,62.7449842 22.7424,62.7896973 L22.6464,62.8344104 C22.4784,62.9127785 22.3152,62.9921082 22.152,63.0733611 L22.0752,63.1103816 L22.0272,63.1358632 C21.9648,63.1675951 21.8976,63.199327 21.8352,63.2310589 C21.7776,63.2627908 21.7152,63.2940419 21.6528,63.3262545 C19.464,64.4637943 17.4432,65.8739398 15.6288,67.5114971 C15.528,67.6028465 15.4272,67.6946766 15.3264,67.7869875 C15.2784,67.8336238 15.2256,67.8807408 15.1776,67.9278579 C15.0816,68.0153609 14.9904,68.1033448 14.8992,68.1922902 C14.8416,68.246619 14.7888,68.3009478 14.7312,68.3557575 C14.568,68.5187439 14.4,68.6836535 14.2416,68.8509671 L14.1936,68.9000073 L14.16,68.9331815 L14.1216,68.9750099 L14.0544,69.0413584 C13.9632,69.1399195 13.8672,69.2394422 13.776,69.3394457 C13.6176,69.5106056 13.4592,69.6841693 13.3056,69.8596562 C13.2432,69.929851 13.1856,70.0000458 13.1232,70.0707213 L13.0704,70.1332235 L13.032,70.1740903 C12.72,70.5380454 12.4176,70.9092122 12.1248,71.2885524 C11.9376,71.5279838 11.76,71.7707808 11.5776,72.0164625 C16.8144,79.2369075 25.3104,83.934668 34.896,83.934668 C44.4768,83.934668 52.9728,79.2369075 58.2096,72.0164625 L58.1472,71.9318441 L58.128,71.9039585 L58.0848,71.8477066 L58.0848,71.8472258 L58.0608,71.8140516 L58.0272,71.763569 L58.0224,71.7630882 L57.9984,71.7275101 L57.9648,71.6799122 L57.96,71.6794315 L57.96,71.6789507 L57.936,71.6424109 L57.8976,71.5962555 L57.8976,71.5957747 L57.8976,71.5948131 L57.8688,71.5577926 L57.8352,71.5130795 L57.8352,71.5121179 L57.8352,71.5111563 L57.8064,71.4741358 L57.7728,71.4299035 L57.7728,71.4289419 L57.7728,71.4279803 L57.744,71.390479 L57.7104,71.3472083 L57.7104,71.3457659 L57.7056,71.3448044 L57.6768,71.307303 L57.648,71.2645131 L57.6432,71.2630707 L57.6432,71.2621092 L57.6144,71.2246078 L57.5808,71.1822987 L57.5808,71.1808563 L57.5808,71.179414 L57.552,71.1419126 L57.5184,71.1000843 L57.5184,71.0986419 L57.5136,71.0967188 L57.4848,71.0596982 L57.4512,71.0178698 L57.4512,71.0164275 L57.4512,71.0149851 L57.4224,70.9779646 L57.3888,70.9361362 L57.384,70.9346939 L57.384,70.9327707 L57.3552,70.896231 L57.3216,70.8548834 L57.3216,70.8529602 L57.3168,70.8510371 L57.288,70.8144973 L57.2544,70.7736305 L57.2544,70.7717074 L57.2544,70.7697842 L57.2256,70.7332445 L57.192,70.6928585 L57.1872,70.6904545 L57.1872,70.6885314 L57.1584,70.6524724 L57.1248,70.6120864 L57.1248,70.6096825 L57.12,70.6077593 L57.0912,70.5717004 L57.0576,70.5317951 L57.0576,70.5293912 L57.0528,70.5269873 L57.024,70.4914091 L56.9904,70.4515039 L56.9904,70.4486192 L56.9856,70.4462152 L56.9568,70.4111178 L56.9232,70.3716934 L56.9232,70.3688087 L56.9184,70.3664047 L56.8896,70.3313074 L56.856,70.2918829 L56.856,70.2889982 L56.8512,70.2861135 L56.8224,70.2519777 L56.7888,70.2120724 L56.7888,70.2091877 L56.784,70.2067838 L56.7552,70.172648 L56.7216,70.1332235 L56.7168,70.129858 L56.7168,70.1269733 L56.688,70.0933183 L56.6544,70.0538938 L56.6496,70.0510091 L56.6496,70.0481244 L56.6208,70.0144693 L56.5872,69.9755257 L56.5824,69.9721602 L56.5776,69.9687947 L56.5488,69.9361012 L56.5152,69.8971575 L56.5152,69.8933113 L56.5104,69.8904265 L56.4816,69.8577331 L56.448,69.8187894 L56.4432,69.8149431 L56.4432,69.8115776 L56.4144,69.7798458 L56.376,69.7409021 L56.376,69.7370558 L56.3712,69.7336903 L56.3424,69.7019584 L56.3088,69.6630147 L56.304,69.6591685 L56.304,69.6558029 L56.2752,69.6245519 L56.2368,69.5856082 L56.2368,69.5812811 L56.232,69.5779156 L56.2032,69.5471453 L56.1696,69.5082016 L56.1648,69.5038746 L56.16,69.5005091 L56.136,69.4702195 L56.0976,69.4312759 L56.0928,69.4269488 L56.0928,69.4231025 L56.064,69.3932938 L56.0256,69.3548309 L56.0256,69.350023 L56.0208,69.3461767 L55.992,69.3168488 L55.9584,69.2783859 L55.9536,69.273578 L55.9488,69.2697317 L55.92,69.2408846 L55.8864,69.2019409 L55.8816,69.1971331 L55.8768,69.1932868 L55.848,69.1649204 L55.8144,69.1259767 L55.8096,69.1211689 L55.8048,69.1173226 L55.7808,69.0889562 L55.7424,69.0504933 L55.7376,69.0452047 L55.7328,69.0413584 L55.7088,69.0134728 L55.6704,68.9750099 L55.6656,68.9697212 L55.6608,68.965875 L55.6368,68.9384702 L55.5984,68.9000073 L55.5936,68.8942378 L55.5888,68.8903915 L55.5648,68.8634675 L55.5264,68.8250046 L55.5216,68.8192352 L55.5168,68.8153889 L55.488,68.7889457 L55.4544,68.7504828 L55.4448,68.7447134 L55.4448,68.7403863 L55.416,68.7149046 L55.3776,68.675961 L55.3728,68.6697107 L55.368,68.6658645 L55.344,68.6408636 L55.3056,68.6019199 L55.3008,68.5956697 L55.296,68.5913426 L55.272,68.5668225 L55.2336,68.5283596 L55.224,68.5216286 L55.224,68.5173016 L55.1952,68.4932623 L55.1568,68.4547994 L55.152,68.4480684 L55.1472,68.4437413 L55.1232,68.4201828 L55.0848,68.3812391 L55.0752,68.3745081 L55.0752,68.370181 L55.0512,68.3471033 L55.008,68.3081596 L55.0032,68.3014286 L54.9984,68.2971016 L54.9744,68.2745046 L54.936,68.2355609 L54.9264,68.2283491 L54.9216,68.2240221 L54.9024,68.2019059 L54.8592,68.1629622 L54.8544,68.1557505 L54.8496,68.1514234 L54.8256,68.129788 L54.7872,68.0908443 L54.7776,68.0831518 L54.7728,68.0788247 L54.7488,68.0581509 L54.7104,68.0187264 L54.7008,68.0110339 L54.696,68.0067068 L54.6768,67.9865138 L54.6336,67.9470893 L54.624,67.9389159 L54.6192,67.9350697 L54.6,67.9148766 L54.5568,67.875933 L54.5472,67.8672788 L54.5472,67.8634325 L54.5232,67.8442011 L54.48,67.8047766 L54.4752,67.7961225 L54.4704,67.7917954 L54.4464,67.7730448 L54.4032,67.7336203 L54.3984,67.7249661 L54.3936,67.7211199 L54.3696,67.70285 L54.3264,67.6629447 L54.3168,67.6542906 L54.3168,67.6499635 L54.2976,67.6326552 L54.2496,67.59275 L54.24,67.583615 L54.2352,67.5797688 L54.216,67.5624605 L54.1728,67.5225552 L54.1632,67.5134203 L54.1584,67.509574 L54.1392,67.4927465 L54.096,67.4528412 L54.0864,67.4432255 L54.0816,67.4393792 L54.0624,67.4235133 L54.0192,67.383608 L54.0096,67.3735115 L54.0048,67.3696653 L53.9856,67.3542801 L53.9424,67.3143749 L53.928,67.3042783 L53.928,67.3004321 L53.9088,67.2855277 L53.8608,67.2451417 L53.8512,67.2350452 L53.8464,67.2311989 L53.832,67.2172561 L53.784,67.1763893 L53.7744,67.1662928 L53.7696,67.1624465 L53.7504,67.1489845 L53.7072,67.1081176 L53.6928,67.0975403 L53.688,67.0936941 L53.6736,67.0811936 L53.6256,67.0403268 L53.616,67.0292687 L53.6112,67.0254224 L53.5968,67.0134028 L53.5488,66.972536 L53.5344,66.9609971 L53.5296,66.9576316 L53.5152,66.9460927 L53.4672,66.9047451 L53.4528,66.8932063 L53.4528,66.8898408 L53.4384,66.8787827 L53.3856,66.8374351 L53.376,66.8258962 L53.3712,66.8225307 L53.3568,66.8119534 L53.3088,66.7706058 L53.2944,66.7585862 L53.2896,66.7552207 L53.28,66.745605 L53.2272,66.7037766 L53.2128,66.6912761 L53.208,66.6883914 L53.1984,66.6792565 L53.1456,66.6374281 L53.1312,66.6249277 L53.1264,66.6220429 L53.1168,66.6133888 L53.0688,66.5715604 L53.0496,66.5585792 L53.0496,66.5556945 L53.0352,66.5475211 L52.9872,66.5056927 L52.968,66.4922307 L52.968,66.4898268 L52.9584,66.4821342 L52.9056,66.439825 L52.8864,66.426363 L52.8864,66.4239591 L52.8768,66.4172281 L52.824,66.3749189 L52.8048,66.3609761 L52.8048,66.3585722 L52.7952,66.352322 L52.7424,66.3100128 L52.7232,66.2955892 L52.7232,66.2936661 L52.7136,66.2878966 L52.6608,66.2451067 L52.6416,66.2306831 L52.6368,66.2287599 L52.632,66.2234713 L52.5792,66.1806813 L52.56,66.165777 L52.5552,66.1643346 L52.5504,66.1600075 L52.4976,66.1167368 L52.4736,66.1013516 L52.4736,66.0999093 L52.4688,66.096063 L52.4112,66.0527922 L52.392,66.0374071 L52.392,66.0359647 L52.3872,66.03308 L52.3296,65.9893285 L52.3104,65.9734625 L52.3056,65.972501 L52.3056,65.9696163 L52.248,65.9263455 L52.224,65.9099988 L52.224,65.9090372 L52.2192,65.9071141 L52.1616,65.8633625 L52.1424,65.846535 L52.1424,65.8460542 L52.1376,65.8446119 L52.08,65.8008604 L52.056,65.7835521 L52.056,65.7825905 L51.9936,65.7383582 L51.9744,65.7210499 L51.9744,65.7205691 C47.7456,62.5973829 42.6384,60.6021207 37.0992,60.1814329 L37.0944,60.1814329 L37.0896,60.1809522 L37.008,60.1751827 L36.9792,60.1727788 L36.9696,60.1718172 L36.9552,60.1708556 L36.8976,60.1670094 L36.8544,60.1641246 L36.84,60.1631631 L36.8256,60.1622015 L36.7872,60.1597976 L36.7296,60.1559513 L36.7104,60.1549897 L36.7008,60.1540281 L36.6768,60.1525858 L36.5952,60.1477779 L36.5808,60.1468163 C36.4944,60.1420085 36.4128,60.1376814 36.3312,60.1338351 L36.3264,60.1333543 L36.2976,60.131912 L36.2352,60.1290273 L36.2112,60.1280657 L36.1968,60.1271041 L36.168,60.1261425 L36.1248,60.1242194 L36.0864,60.122777 L36.0672,60.1218155 L36.0432,60.1208539 L36.0144,60.1194115 L35.9664,60.1179692 L35.9376,60.1170076 L35.9232,60.1165268 L35.904,60.1155652 L35.8368,60.1131613 L35.808,60.1126805 L35.7984,60.1121997 C35.76,60.1107574 35.7168,60.1097958 35.6784,60.1088342 L35.6688,60.1083535 L35.568,60.1059495 L35.5536,60.1059495 L35.5488,60.1054687 L35.5152,60.104988 L35.4576,60.1035456 L35.4336,60.1030648 L35.4144,60.1030648 L35.3856,60.102584 L35.3424,60.1016225 L35.3088,60.1011417 L35.2848,60.1006609 L35.2608,60.1006609 L35.232,60.1001801 L35.184,60.0996993 L35.1552,60.0992185 L35.1408,60.0992185 L35.1168,60.0992185 L35.0544,60.0987377 L35.0256,60.0987377 L35.016,60.0987377 L35.0064,60.0982569 L34.896,60.0982569 L34.7808,60.0982569 Z M69.6576,72.0164625 C74.8944,79.2369075 83.3904,83.934668 92.976,83.934668 C102.5568,83.934668 111.0528,79.2369075 116.2896,72.0164625 C111.0528,64.7964983 102.5568,60.0982569 92.976,60.0982569 L92.9712,60.0982569 C92.9328,60.0982569 92.8896,60.0982569 92.8464,60.0987377 L92.832,60.0987377 L92.7456,60.0992185 L92.7216,60.0992185 L92.712,60.0992185 L92.7024,60.0996993 L92.6352,60.1001801 L92.592,60.1006609 L92.5824,60.1006609 L92.5776,60.1011417 C83.1552,60.2280692 74.8224,64.8955402 69.6576,72.0164625 Z M79.0032,42.0788764 C79.3536,40.2860252 79.536,38.4340373 79.536,36.5397402 C79.536,25.382619 73.1952,15.6962224 63.936,10.8989391 C54.672,15.6962224 48.336,25.382619 48.336,36.5397402 C48.336,38.4340373 48.5184,40.2860252 48.864,42.0788764 C49.008,42.6389921 49.1328,43.2039157 49.248,43.774128 C51.3168,51.7888315 56.7456,58.4573341 63.936,62.1805414 C71.1264,58.4573341 76.5504,51.7888315 78.6192,43.774128 C78.7344,43.2043965 78.864,42.6389921 79.0032,42.0788764 Z M24.1056,25.5436823 C22.704,28.933224 21.936,32.6468155 21.936,36.5397402 C21.936,42.0139703 23.4624,47.133861 26.1072,51.4960328 L26.2032,51.4734359 L26.3376,51.4431464 L26.4432,51.4195879 L26.5776,51.3892983 L26.6784,51.3667014 L26.8176,51.3364119 L26.9136,51.3157381 L27.0672,51.2840062 L27.1536,51.2657363 L27.336,51.2287158 L27.3936,51.2176577 L27.6336,51.1710215 L27.6816,51.1614057 L27.8736,51.1258276 L27.9552,51.1099616 L28.1136,51.082076 L28.2096,51.0647678 L28.3536,51.0397669 L28.4544,51.0219778 L28.5936,50.9989001 L28.6992,50.9815918 L28.8336,50.9599564 L28.944,50.9426481 L29.0784,50.9219743 L29.1888,50.9051468 L29.3184,50.8859153 L29.4336,50.8695686 L29.5632,50.8512987 L29.6784,50.8354328 L29.808,50.8181245 L29.9232,50.8032201 L30.0528,50.7863926 L30.168,50.771969 L30.2976,50.7561031 L30.4128,50.7426411 L30.5424,50.7277367 L30.6576,50.7147555 L30.7872,50.7008127 L30.9024,50.6883123 L31.032,50.675331 L31.1472,50.6637922 L31.2768,50.6512917 L31.3968,50.6407144 L31.5264,50.6291756 L31.6416,50.6190791 L31.776,50.608021 L31.8912,50.5988861 L32.0208,50.5887896 L32.1408,50.5801354 L32.2704,50.5714813 L32.3856,50.5633079 L32.52,50.5551345 L32.6352,50.5484035 L32.7696,50.5407109 L32.8848,50.5344607 L33.0192,50.5277297 L33.1344,50.5224411 L33.2736,50.5166716 L33.384,50.5118638 L33.5232,50.5070559 L33.6384,50.5027289 L33.7776,50.4988826 L33.888,50.4955171 L34.032,50.4921516 L34.1376,50.4897476 L34.2912,50.4873437 L34.392,50.4859013 L34.56,50.4839782 L34.6416,50.4834974 L34.896,50.4825358 L35.1456,50.4834974 L35.232,50.4839782 L35.4,50.4859013 L35.5008,50.4873437 L35.6496,50.4897476 L35.76,50.4921516 L35.904,50.4955171 L36.0144,50.4988826 L36.1536,50.5027289 L36.2688,50.5070559 L36.4032,50.5118638 L36.5184,50.5166716 L36.6528,50.5224411 L36.768,50.5277297 L36.9024,50.5344607 L37.0224,50.5407109 L37.152,50.5484035 L37.272,50.5551345 L37.4016,50.5633079 L37.5168,50.5714813 L37.6512,50.5801354 L37.9008,50.5988861 L38.016,50.608021 L38.1456,50.6190791 L38.2656,50.6291756 L38.3952,50.6407144 L38.5104,50.6512917 L38.64,50.6637922 L38.8848,50.6883123 L39.0048,50.7008127 L39.1344,50.7147555 L39.2496,50.7277367 L39.3792,50.7426411 L39.4944,50.7561031 L39.624,50.771969 L39.7392,50.7863926 L39.8688,50.8032201 L39.984,50.8181245 L40.1136,50.8354328 L40.2288,50.8512987 L40.3584,50.8695686 L40.4112,50.8772612 C40.3776,49.1796056 40.1952,47.5175282 39.8832,45.9040102 C39.744,45.3443753 39.6144,44.7799324 39.4992,44.2111625 C37.3776,35.9781821 31.7088,29.1659245 24.2256,25.5066618 L24.1392,25.4638719 L24.1056,25.5436823 Z M103.6464,25.5066618 C96.1632,29.1659245 90.4944,35.9781821 88.368,44.2111625 C88.2528,44.7799324 88.128,45.3443753 87.9888,45.9040102 C87.672,47.5175282 87.4944,49.1796056 87.4608,50.8772612 L87.5136,50.8695686 L87.6432,50.8512987 L87.7584,50.8354328 L87.888,50.8181245 L88.0032,50.8032201 L88.1328,50.7863926 L88.248,50.771969 L88.3776,50.7561031 L88.4928,50.7426411 L88.6224,50.7277367 L88.7376,50.7147555 L88.8672,50.7008127 L88.9824,50.6883123 L89.112,50.675331 L89.2272,50.6637922 L89.3568,50.6512917 L89.4768,50.6407144 L89.6064,50.6291756 L89.7216,50.6190791 L89.856,50.608021 L89.9712,50.5988861 L90.1008,50.5887896 L90.2208,50.5801354 L90.3504,50.5714813 L90.4656,50.5633079 L90.6,50.5551345 L90.7152,50.5484035 L90.8496,50.5407109 L90.9648,50.5344607 L91.0992,50.5277297 L91.2144,50.5224411 L91.3536,50.5166716 L91.464,50.5118638 L91.6032,50.5070559 L91.7184,50.5027289 L91.8576,50.4988826 L91.968,50.4955171 L92.112,50.4921516 L92.2176,50.4897476 L92.3712,50.4873437 L92.472,50.4859013 L92.64,50.4839782 L92.7216,50.4834974 L92.976,50.4825358 L93.2256,50.4834974 L93.312,50.4839782 L93.48,50.4859013 L93.5808,50.4873437 L93.7296,50.4897476 L93.84,50.4921516 L93.984,50.4955171 L94.0944,50.4988826 L94.2336,50.5027289 L94.3488,50.5070559 L94.4832,50.5118638 L94.5984,50.5166716 L94.7328,50.5224411 L94.848,50.5277297 L94.9824,50.5344607 L95.1024,50.5407109 L95.232,50.5484035 L95.352,50.5551345 L95.4816,50.5633079 L95.5968,50.5714813 L95.7312,50.5801354 L95.9808,50.5988861 L96.096,50.608021 L96.2256,50.6190791 L96.3456,50.6291756 L96.4752,50.6407144 L96.5904,50.6512917 L96.72,50.6637922 L96.9648,50.6883123 L97.0848,50.7008127 L97.2144,50.7147555 L97.3296,50.7277367 L97.4592,50.7426411 L97.5744,50.7561031 L97.704,50.771969 L97.8192,50.7863926 L97.9488,50.8032201 L98.064,50.8181245 L98.1936,50.8354328 L98.3088,50.8512987 L98.4384,50.8695686 L98.5488,50.8859153 L98.6832,50.9051468 L98.7936,50.9219743 L98.9232,50.9426481 L99.0336,50.9599564 L99.168,50.9815918 L99.2784,50.9989001 L99.4128,51.0219778 L99.5184,51.0397669 L99.6624,51.0647678 L99.7584,51.082076 L99.912,51.1099616 L99.9984,51.1258276 L100.1856,51.1614057 L100.2384,51.1710215 L100.4784,51.2176577 L100.5312,51.2287158 L100.7184,51.2657363 L100.8048,51.2840062 L100.9536,51.3157381 L101.0496,51.3364119 L101.1936,51.3667014 L101.2944,51.3892983 L101.4288,51.4195879 L101.5344,51.4431464 L101.664,51.4734359 L101.76,51.4960328 C104.4096,47.133861 105.936,42.0139703 105.936,36.5397402 C105.936,32.6468155 105.1632,28.933224 103.7664,25.5436823 L103.7328,25.4638719 L103.6464,25.5066618 Z"></path>
                    </g>
                </g>
                <g id="Group" transform="translate(0.000000, 124.000000)" fill-rule="nonzero">
                    <polygon id="Shape" points="8.36060976 16.5793739 8.36060976 3.72240005 12.9153619 3.72240005 12.9153619 1.04080265 0.54018624 1.04080265 0.54018624 3.72240005 5.0949384 3.72240005 5.0949384 16.5793739"></polygon>
                    <path d="M22.3195133,16.5793739 L25.462415,16.5793739 L25.462415,9.84476855 C25.462415,8.25295274 26.383187,7.17541589 27.942361,7.17541589 C29.4401501,7.17541589 30.2135986,8.1060159 30.2135986,9.64885276 L30.2135986,16.5793739 L33.3687773,16.5793739 L33.3687773,8.9998817 C33.3687773,6.25706061 31.8464342,4.55504217 29.2068878,4.55504217 C27.4021747,4.55504217 26.1499248,5.35095007 25.474692,6.84480799 L25.4133072,6.84480799 L25.4133072,0.306118425 L22.3195133,0.306118425 L22.3195133,16.5793739 Z" id="Shape"></path>
                    <path d="M48.481715,6.86929746 C49.9426733,6.86929746 50.949384,7.8733659 51.0107688,9.4284475 L45.8789995,9.4284475 C45.9894922,7.91010011 47.0453107,6.86929746 48.481715,6.86929746 Z M51.0475997,12.9549318 C50.7406757,13.873287 49.8076267,14.4365449 48.6167616,14.4365449 C46.959372,14.4365449 45.8421686,13.2855397 45.8421686,11.5712765 L45.8421686,11.3753607 L54.0431779,11.3753607 L54.0431779,10.4080265 C54.0431779,6.80807378 51.870156,4.51830796 48.4448842,4.51830796 C44.9582275,4.51830796 42.7360978,6.93052115 42.7360978,10.7019001 C42.7360978,14.4610344 44.9582275,16.7752897 48.5676538,16.7752897 C51.4527394,16.7752897 53.6012074,15.2569423 53.9572392,12.9549318 L51.0475997,12.9549318 Z" id="Shape"></path>
                    <polygon id="Shape" points="86.257921 13.8855318 79.4442082 13.8855318 79.4442082 1.04080265 76.1908138 1.04080265 76.1908138 16.5793739 86.257921 16.5793739"></polygon>
                    <path d="M100.941165,16.7752897 C104.550591,16.7752897 106.809552,14.4855239 106.809552,10.6406765 C106.809552,6.84480799 104.526037,4.51830796 100.941165,4.51830796 C97.3808467,4.51830796 95.0850552,6.85705272 95.0850552,10.6406765 C95.0850552,14.4732791 97.3440158,16.7752897 100.941165,16.7752897 Z M100.941165,14.3630765 C99.2837755,14.3630765 98.2770648,13.0039107 98.2770648,10.6406765 C98.2770648,8.32642117 99.2837755,6.93052115 100.941165,6.93052115 C102.598555,6.93052115 103.605265,8.31417643 103.605265,10.6406765 C103.605265,13.0039107 102.610832,14.3630765 100.941165,14.3630765 Z" id="Shape"></path>
                    <path d="M117.060814,2.09385003 L117.060814,4.72646849 L115.452532,4.72646849 L115.452532,7.10194746 L117.060814,7.10194746 L117.060814,13.3834975 C117.060814,15.6977528 118.141186,16.6161081 120.891225,16.6161081 C121.529627,16.6161081 122.094367,16.5548844 122.413568,16.4936607 L122.413568,14.1671607 C122.229414,14.1916502 121.910213,14.2161397 121.627843,14.2161397 C120.67024,14.2161397 120.215992,13.7753291 120.215992,12.8692186 L120.215992,7.10194746 L122.413568,7.10194746 L122.413568,4.72646849 L120.215992,4.72646849 L120.215992,2.09385003 L117.060814,2.09385003 Z" id="Shape"></path>
                    <path d="M142.84243,4.72646849 L139.687251,4.72646849 L139.687251,11.4733186 C139.687251,13.0773791 138.766479,14.1304265 137.305521,14.1304265 C135.844562,14.1304265 135.04656,13.2732949 135.04656,11.6692344 L135.04656,4.72646849 L131.903658,4.72646849 L131.903658,12.3304502 C131.903658,15.085516 133.597879,16.7508002 136.163763,16.7508002 C137.968476,16.7508002 139.134788,15.9181581 139.736359,14.4365449 L139.797744,14.4365449 L139.797744,16.5793739 L142.84243,16.5793739 L142.84243,4.72646849 Z" id="Shape"></path>
                    <path d="M152.504397,8.21621853 C152.504397,9.94272645 153.658431,11.0937317 155.892838,11.6080107 L158.090414,12.0978002 C159.158509,12.3549396 159.575926,12.6855475 159.575926,13.2977844 C159.575926,14.0692028 158.814755,14.5467476 157.562505,14.5467476 C156.24887,14.5467476 155.438591,13.9957344 155.291267,12.991666 L152.222027,12.991666 C152.381628,15.269187 154.345941,16.7752897 157.464289,16.7752897 C160.582637,16.7752897 162.706551,15.2569423 162.706551,12.9549318 C162.706551,11.1916896 161.748948,10.2733343 159.367218,9.74681066 L157.132811,9.25702118 C156.064716,9.01212644 155.549083,8.60805012 155.549083,8.02030274 C155.549083,7.24888431 156.310255,6.74685009 157.439735,6.74685009 C158.642877,6.74685009 159.44088,7.3468422 159.502264,8.27744222 L162.411904,8.27744222 C162.375073,6.01216587 160.410759,4.51830796 157.476566,4.51830796 C154.468711,4.51830796 152.504397,5.9876764 152.504397,8.21621853 Z" id="Shape"></path>
                    <polygon id="Shape" points="192.95698 16.5793739 198.186965 1.04080265 194.638924 1.04080265 191.078605 13.224316 191.004944 13.224316 187.444625 1.04080265 183.798368 1.04080265 189.028353 16.5793739"></polygon>
                    <path d="M207.3333,16.5793739 L210.488479,16.5793739 L210.488479,4.72646849 L207.3333,4.72646849 L207.3333,16.5793739 Z M208.917028,3.4407711 C209.850077,3.4407711 210.623526,2.73057635 210.623526,1.7877316 C210.623526,0.857131591 209.850077,0.146936844 208.917028,0.146936844 C207.983979,0.146936844 207.222808,0.857131591 207.222808,1.7877316 C207.222808,2.73057635 207.983979,3.4407711 208.917028,3.4407711 Z" id="Shape"></path>
                    <path d="M227.393853,16.714066 C230.389431,16.714066 232.230975,14.4120555 232.230975,10.6406765 C232.230975,6.8815422 230.389431,4.59177638 227.381576,4.59177638 C225.687356,4.59177638 224.373721,5.38768428 223.710765,6.74685009 L223.64938,6.74685009 L223.64938,0.306118425 L220.494202,0.306118425 L220.494202,16.5793739 L223.600272,16.5793739 L223.600272,14.5467476 L223.661657,14.5467476 C224.324613,15.9181581 225.662802,16.714066 227.393853,16.714066 Z M226.325758,7.12643694 C227.946316,7.12643694 229.002135,8.49784748 229.002135,10.6406765 C229.002135,12.7957502 227.958593,14.1794055 226.325758,14.1794055 C224.705199,14.1794055 223.637103,12.7712607 223.624826,10.6529212 C223.637103,8.53458169 224.705199,7.12643694 226.325758,7.12643694 Z" id="Shape"></path>
                    <path d="M246.95105,6.86929746 C248.412009,6.86929746 249.430996,7.8733659 249.480104,9.4284475 L244.360612,9.4284475 C244.458828,7.91010011 245.514646,6.86929746 246.95105,6.86929746 Z M249.516935,12.9549318 C249.222288,13.873287 248.276962,14.4365449 247.098374,14.4365449 C245.428707,14.4365449 244.323781,13.2855397 244.323781,11.5712765 L244.323781,11.3753607 L252.52479,11.3753607 L252.52479,10.4080265 C252.52479,6.80807378 250.339491,4.51830796 246.926496,4.51830796 C243.43984,4.51830796 241.21771,6.93052115 241.21771,10.7019001 C241.21771,14.4610344 243.427563,16.7752897 247.036989,16.7752897 C249.934352,16.7752897 252.08282,15.2569423 252.426575,12.9549318 L249.516935,12.9549318 Z" id="Shape"></path>
                    <path d="M261.744787,8.21621853 C261.744787,9.94272645 262.898821,11.0937317 265.133228,11.6080107 L267.318527,12.0978002 C268.3989,12.3549396 268.816316,12.6855475 268.816316,13.2977844 C268.816316,14.0692028 268.042868,14.5467476 266.790618,14.5467476 C265.48926,14.5467476 264.678981,13.9957344 264.531657,12.991666 L261.45014,12.991666 C261.622018,15.269187 263.586331,16.7752897 266.704679,16.7752897 C269.823027,16.7752897 271.946941,15.2569423 271.946941,12.9549318 C271.946941,11.1916896 270.989338,10.2733343 268.607608,9.74681066 L266.373201,9.25702118 C265.305106,9.01212644 264.789473,8.60805012 264.789473,8.02030274 C264.789473,7.24888431 265.550645,6.74685009 266.680125,6.74685009 C267.883267,6.74685009 268.668993,7.3468422 268.742654,8.27744222 L271.652294,8.27744222 C271.603186,6.01216587 269.651149,4.51830796 266.716956,4.51830796 C263.709101,4.51830796 261.744787,5.9876764 261.744787,8.21621853 Z" id="Shape"></path>
                </g>
            </g>
        </g>
    </g>
</svg>